<?xml version="1.0" encoding="UTF-8"?>
<svg id="Layer_2" data-name="Layer 2" xmlns="http://www.w3.org/2000/svg" xmlns:xlink="http://www.w3.org/1999/xlink" viewBox="0 0 746.77 833.11">
  <defs>
    <linearGradient id="linear-gradient" x1="0" y1="416.56" x2="746.77" y2="416.56" gradientUnits="userSpaceOnUse">
      <stop offset="0" stop-color="#0055bc"/>
      <stop offset="1" stop-color="aqua"/>
    </linearGradient>
  </defs>
  <g id="Layer_1-2" data-name="Layer 1">
    <path d="M734.08,208.36c-8.24-14.27-20.24-26.29-35.43-35.05L421.41,13.25l.02-.04c-15.25-8.8-31.63-13.21-48.04-13.21s-32.79,4.41-48.04,13.21l.02.04L48.12,173.3c-15.19,8.76-27.19,20.78-35.43,35.05-8.27,14.33-12.69,30.7-12.69,48.1v320.2c0,17.4,4.42,33.77,12.69,48.1,8.24,14.27,20.24,26.29,35.43,35.05l277.24,160.05-.02.04c15.25,8.81,31.64,13.21,48.04,13.21s32.79-4.4,48.04-13.21l-.02-.04,277.24-160.05c15.19-8.76,27.19-20.78,35.43-35.05,8.27-14.33,12.69-30.7,12.69-48.1v-320.2c0-17.4-4.42-33.77-12.69-48.1ZM703.79,576.65c0,9.98-2.38,19.09-6.82,26.78-4.47,7.75-11.13,14.36-19.64,19.27l-277.31,160.09h-.09c-8.46,4.88-17.52,7.33-26.55,7.33s-18.09-2.44-26.55-7.33h-.09l-277.3-160.09c-8.52-4.91-15.17-11.52-19.65-19.27-4.43-7.68-6.81-16.8-6.81-26.78v-320.2c0-9.98,2.38-19.09,6.81-26.78,4.47-7.75,11.13-14.36,19.65-19.27L346.74,50.32h.09c8.45-4.88,17.52-7.33,26.55-7.33s18.1,2.45,26.55,7.33h.09l277.31,160.09c8.52,4.91,15.17,11.52,19.64,19.27,4.43,7.68,6.82,16.79,6.82,26.78v320.2ZM98.13,290.92c68.99,39.83,137.99,79.66,206.98,119.51,20.5,11.83,37.22,41.76,37.22,66.62v234.85c0,24.86-16.72,35.48-37.22,23.65l-29.79-17.21v-243.84l-40.21-23.21v243.83l-67-38.69v-243.83l-40.2-23.22v243.82l-29.78-17.2c-20.5-11.84-37.21-41.76-37.21-66.62v-234.82c0-24.86,16.71-35.48,37.21-23.66M434.87,410.42c69-39.84,138-79.68,206.99-119.51,20.49-11.83,37.21-1.2,37.21,23.66v36.13c-71.46,41.26-142.92,82.52-214.4,123.79v40.64c71.48-41.27,142.95-82.53,214.4-123.79v158.04c0,24.86-16.71,54.78-37.21,66.62l-206.99,119.53c-20.49,11.83-37.21,1.21-37.21-23.65v-36.14l214.42-123.81v-40.64l-214.42,123.81v-158.06c0-24.86,16.72-54.79,37.21-66.62M622.29,204.67l-204.58-118.15c-24.86-14.36-62.98-14.84-86.78-1.08l-74.7,43.14c-44.55,25.73-89.09,51.45-133.64,77.18-17.34,10.01-19.93,22.98-19.93,29.82,0,12.22,7.95,23.82,21.81,31.82l204.59,118.12c.72.41,1.45.81,2.19,1.2,12.3,6.5,27.69,9.75,42.85,9.75,15.27,0,30.31-3.3,41.72-9.88l208.33-120.28c17.35-10.02,19.94-22.99,19.94-29.83,0-12.22-7.95-23.81-21.8-31.81ZM614.16,249l-208.33,120.28c-17.08,9.86-46.34,9.76-65.22-.23-.52-.28-1.04-.56-1.54-.85l-204.59-118.12c-7.4-4.27-11.81-9.69-11.81-14.5,0-4.3,3.62-8.86,9.93-12.5,44.55-25.72,89.09-51.45,133.64-77.18l74.7-43.14c.06-.04.13-.07.19-.11,10.2-5.82,22.88,1.77,22.88,13.51v256.31c5.59,1.84,11.56,1.74,16.94-.34V119.38c0-13.62,14.7-22.41,26.53-15.67.08.04.15.09.23.13l204.59,118.15h0c7.39,4.27,11.8,9.69,11.8,14.49,0,4.3-3.62,8.86-9.94,12.51Z" style="fill: url(#linear-gradient);"/>
  </g>
</svg>