<?xml version="1.0" encoding="UTF-8"?>
<svg id="Layer_2" data-name="Layer 2" xmlns="http://www.w3.org/2000/svg" xmlns:xlink="http://www.w3.org/1999/xlink" viewBox="0 0 746.77 833.11">
  <defs>
    <linearGradient id="linear-gradient" x1="0" y1="416.56" x2="746.77" y2="416.56" gradientUnits="userSpaceOnUse">
      <stop offset="0" stop-color="#f0f"/>
      <stop offset=".05" stop-color="#ee05fa"/>
      <stop offset=".15" stop-color="#c313ef"/>
      <stop offset=".28" stop-color="#7d2bdc"/>
      <stop offset=".45" stop-color="#1e4ac4"/>
      <stop offset=".5" stop-color="#0055bc"/>
      <stop offset=".62" stop-color="#0057bd"/>
      <stop offset=".7" stop-color="#0060c0"/>
      <stop offset=".76" stop-color="#006fc6"/>
      <stop offset=".82" stop-color="#0084ce"/>
      <stop offset=".88" stop-color="#009fd9"/>
      <stop offset=".93" stop-color="#00c1e6"/>
      <stop offset=".98" stop-color="#00e8f6"/>
      <stop offset="1" stop-color="aqua"/>
    </linearGradient>
  </defs>
  <g id="Layer_1-2" data-name="Layer 1">
    <g>
      <path d="M677.33,210.41L400.02,50.32h-.09c-8.45-4.88-17.52-7.33-26.55-7.33s-18.1,2.45-26.55,7.33h-.09L69.44,210.41c-8.52,4.91-15.17,11.52-19.65,19.27-4.43,7.68-6.81,16.79-6.81,26.78v320.2c0,9.98,2.38,19.09,6.81,26.78,4.47,7.75,11.13,14.36,19.65,19.27l277.3,160.09h.09c8.46,4.88,17.52,7.33,26.55,7.33s18.09-2.44,26.55-7.33h.09l277.31-160.09c8.52-4.91,15.17-11.52,19.64-19.27,4.43-7.68,6.82-16.8,6.82-26.78v-320.2c0-9.98-2.38-19.09-6.82-26.78-4.47-7.75-11.13-14.36-19.64-19.27M421.41,13.25l277.24,160.05c15.19,8.76,27.19,20.79,35.43,35.05,8.27,14.33,12.69,30.7,12.69,48.1v320.2c0,17.4-4.42,33.77-12.69,48.1-8.24,14.27-20.24,26.29-35.43,35.05l-277.24,160.05.02.04c-15.25,8.81-31.63,13.21-48.04,13.21s-32.79-4.4-48.04-13.21l.02-.04L48.12,659.81c-15.19-8.76-27.19-20.78-35.43-35.05-8.27-14.33-12.69-30.7-12.69-48.1v-320.2c0-17.4,4.42-33.77,12.69-48.1,8.24-14.27,20.24-26.29,35.43-35.05L325.36,13.25l-.02-.04c15.25-8.8,31.64-13.21,48.04-13.21s32.79,4.41,48.04,13.21l-.02.04ZM119.88,298.14c64.77,37.39,129.53,74.78,194.3,112.18,19.24,11.1,34.94,39.2,34.94,62.54v220.45c0,23.34-15.7,33.31-34.94,22.2l-27.96-16.15v-228.9l-37.74-21.79v228.89l-62.89-36.32v-228.88l-37.74-21.79v228.88l-27.96-16.14c-19.24-11.11-34.93-39.2-34.93-62.54v-220.42c0-23.34,15.69-33.31,34.93-22.21M432.59,410.32c64.77-37.4,129.54-74.79,194.3-112.18,19.24-11.1,34.92-1.13,34.92,22.21v33.92c-67.08,38.73-134.16,77.46-201.26,116.2v38.15c67.1-38.74,134.19-77.47,201.26-116.2v148.36c0,23.33-15.69,51.43-34.92,62.54l-194.3,112.21c-19.24,11.11-34.93,1.14-34.93-22.2v-33.93l201.28-116.22v-38.15l-201.28,116.22v-148.37c0-23.34,15.69-51.43,34.93-62.54" style="fill: url(#linear-gradient);"/>
      <path d="M600.97,214.85l-190.9-110.24c-20.2-11.67-52.39-12.13-71.64-1.01-.58.34-1.16.67-1.74,1.01-64.22,37.09-128.43,74.17-192.65,111.26-19.24,11.11-18.45,29.69,1.76,41.36l190.9,110.21c20.2,11.66,52.38,12.11,71.62,1l194.39-112.23c19.24-11.12,18.46-29.69-1.74-41.36Z" style="fill: #0055bc;"/>
    </g>
  </g>
</svg>